<svg width="542" height="169" viewBox="0 0 542 169" fill="none" xmlns="http://www.w3.org/2000/svg">
<path d="M0 128.321V2.03511L23.8872 2.1488C23.8247 3.77515 24.1304 6.52451 25.1087 11.0351C28.5326 26.8208 79.1926 102.807 84.5 95.0351C89.8074 87.2632 91.4755 2.16489 79.8913 2.16547C68.3071 2.16606 105 2.03511 105 2.03511V128.321C105 133.686 100.912 138.035 95.8696 138.035H79.8913C75.4739 138.035 71.7894 134.698 70.9435 130.264C70.8237 129.636 70.7609 128.986 70.7609 128.321C70.7609 128.321 41.087 65.9637 27.3913 63.5351C13.6957 61.1065 34.2391 128.321 34.2391 128.321C34.2391 133.686 30.1514 138.035 25.1087 138.035H9.13043C4.0877 138.035 0 133.686 0 128.321Z" fill="url(#paint0_linear_5_4)"/>
<path d="M162.8 140.4C154.8 140.4 148.067 138.6 142.6 135C137.133 131.267 133 126.467 130.2 120.6C127.533 114.733 126.2 108.533 126.2 102C126.2 93.8667 128.067 86.6 131.8 80.2C135.533 73.6667 140.6 68.5333 147 64.8C153.533 60.9333 160.667 59 168.4 59C176 59 181.733 61 185.6 65C189.6 69 191.6 74.6 191.6 81.8C191.6 83.5333 191.4 84.8667 191 85.8C190.733 86.6 190.133 87 189.2 87H178C178.533 78.8667 177.333 72.8667 174.4 69C171.467 65 167.267 63 161.8 63C154.733 63 149.2 65.8 145.2 71.4C141.333 77 139.4 84.6667 139.4 94.4C139.4 102 140.6 108.733 143 114.6C145.4 120.467 148.933 125.067 153.6 128.4C158.267 131.733 163.933 133.4 170.6 133.4C175.133 133.4 178.867 132.733 181.8 131.4C184.733 130.067 187.667 128.533 190.6 126.8C190.867 126.533 191.2 126.733 191.6 127.4C192.133 127.933 192.267 128.4 192 128.8C187.333 132.933 182.533 135.933 177.6 137.8C172.8 139.533 167.867 140.4 162.8 140.4ZM135.8 87.2L135.6 84.6L181 83.8V87L135.8 87.2ZM252.441 138C252.041 138 251.841 137.6 251.841 136.8C251.841 136 252.041 135.6 252.441 135.6C256.441 135.6 258.641 135.067 259.041 134C259.441 132.933 258.641 130.867 256.641 127.8L223.241 77.4C219.641 72.0667 216.107 68.4 212.641 66.4C209.174 64.2667 206.241 63.2 203.841 63.2C203.574 63.2 203.441 62.8 203.441 62C203.441 61.2 203.574 60.8 203.841 60.8C205.841 60.8 207.907 60.8667 210.041 61C212.174 61.1333 214.241 61.2 216.241 61.2C220.641 61.2 224.507 61.1333 227.841 61C231.174 60.8667 234.174 60.8 236.841 60.8C237.107 60.8 237.241 61.2 237.241 62C237.241 62.8 237.107 63.2 236.841 63.2C233.107 63.2 230.974 63.7333 230.441 64.8C229.907 65.8667 230.707 67.9333 232.841 71L266.241 121.4C269.841 126.867 273.441 130.6 277.041 132.6C280.641 134.6 283.641 135.6 286.041 135.6C286.307 135.6 286.441 136 286.441 136.8C286.441 137.6 286.307 138 286.041 138C284.041 138 281.907 137.933 279.641 137.8C277.374 137.667 275.241 137.6 273.241 137.6C268.707 137.6 264.774 137.667 261.441 137.8C258.241 137.933 255.241 138 252.441 138ZM203.241 138C202.974 138 202.841 137.6 202.841 136.8C202.841 136 202.974 135.6 203.241 135.6C206.574 135.6 210.241 134.4 214.241 132C218.374 129.467 222.241 125.733 225.841 120.8L241.841 98.6L244.241 100.6L229.441 122C227.441 124.933 226.174 127.467 225.641 129.6C225.107 131.6 225.641 133.133 227.241 134.2C228.974 135.133 232.174 135.6 236.841 135.6C237.241 135.6 237.441 136 237.441 136.8C237.441 137.6 237.241 138 236.841 138C233.774 138 230.774 137.933 227.841 137.8C225.041 137.667 221.374 137.6 216.841 137.6C213.907 137.6 211.507 137.667 209.641 137.8C207.907 137.933 205.774 138 203.241 138ZM244.841 99.4L242.841 97.4L256.841 76.8C260.041 72 261.374 68.5333 260.841 66.4C260.307 64.2667 256.507 63.2 249.441 63.2C249.174 63.2 249.041 62.8 249.041 62C249.041 61.2 249.174 60.8 249.441 60.8C252.641 60.8 255.641 60.8667 258.441 61C261.374 61.1333 265.107 61.2 269.641 61.2C272.574 61.2 274.907 61.1333 276.641 61C278.507 60.8667 280.707 60.8 283.241 60.8C283.507 60.8 283.641 61.2 283.641 62C283.641 62.8 283.507 63.2 283.241 63.2C279.907 63.2 276.241 64.4 272.241 66.8C268.374 69.0667 264.507 72.8 260.641 78L244.841 99.4ZM324.931 139.6C318.398 139.6 313.198 137.533 309.331 133.4C305.598 129.133 303.731 123 303.731 115V84.4C303.731 79.2 303.265 75.4667 302.331 73.2C301.531 70.8 299.998 69.6 297.731 69.6C295.865 69.6 293.598 70.2667 290.931 71.6C290.398 71.7333 289.931 71.4 289.531 70.6C289.265 69.8 289.398 69.3333 289.931 69.2L312.131 59.2C312.398 59.0667 312.665 59 312.931 59C313.331 59 313.731 59.2 314.131 59.6C314.665 59.8667 314.931 60.2 314.931 60.6V108.4C314.931 116.267 316.331 122.133 319.131 126C321.931 129.733 326.131 131.6 331.731 131.6C336.798 131.6 341.865 130.067 346.931 127C352.131 123.933 356.665 119.8 360.531 114.6L361.531 116.8C355.398 124.667 349.331 130.467 343.331 134.2C337.465 137.8 331.331 139.6 324.931 139.6ZM367.931 60.6V116.6C367.931 121.133 368.465 124.4 369.531 126.4C370.598 128.4 372.398 129.4 374.931 129.4C376.265 129.4 377.731 129.2 379.331 128.8C381.065 128.267 383.131 127.533 385.531 126.6C386.198 126.333 386.665 126.6 386.931 127.4C387.198 128.067 387.065 128.533 386.531 128.8L363.131 139.8C362.865 139.933 362.598 140 362.331 140C361.265 140 360.065 138.6 358.731 135.8C357.398 132.867 356.731 128.733 356.731 123.4V84.4C356.731 79.2 356.265 75.4667 355.331 73.2C354.531 70.8 352.998 69.6 350.731 69.6C348.865 69.6 346.598 70.2667 343.931 71.6C343.398 71.7333 342.998 71.4 342.731 70.6C342.465 69.8 342.598 69.3333 343.131 69.2L365.331 59.2C365.598 59.0667 365.798 59 365.931 59C366.331 59 366.731 59.2 367.131 59.6C367.665 59.8667 367.931 60.2 367.931 60.6ZM415.764 83.8L414.964 81.6C419.897 75.6 423.964 71 427.164 67.8C430.364 64.4667 433.097 62.2 435.364 61C437.764 59.6667 440.031 59 442.164 59C444.964 59 447.697 59.8 450.364 61.4C453.164 63 454.564 64.9333 454.564 67.2C454.564 68.9333 453.964 70.4 452.764 71.6C451.697 72.8 450.097 73.4 447.964 73.4C446.231 73.4 444.764 72.8667 443.564 71.8C442.364 70.7333 441.097 69.7333 439.764 68.8C438.431 67.8667 436.697 67.4 434.564 67.4C433.364 67.4 432.097 67.7333 430.764 68.4C429.431 69.0667 427.631 70.6 425.364 73C423.097 75.2667 419.897 78.8667 415.764 83.8ZM396.164 138C395.764 138 395.564 137.6 395.564 136.8C395.564 136 395.764 135.6 396.164 135.6C401.364 135.6 404.697 134.733 406.164 133C407.764 131.133 408.564 127.4 408.564 121.8V82.2C408.564 77.8 408.031 74.6 406.964 72.6C406.031 70.4667 404.231 69.4 401.564 69.4C400.231 69.4 398.631 69.6667 396.764 70.2C395.031 70.7333 393.031 71.4667 390.764 72.4C390.231 72.5333 389.764 72.2667 389.364 71.6C389.097 70.9333 389.231 70.4667 389.764 70.2L412.964 59.2C413.364 59.0667 413.764 59 414.164 59C415.097 59 416.297 60.4 417.764 63.2C419.231 66 419.964 70.0667 419.964 75.4V121.8C419.964 125.533 420.431 128.467 421.364 130.6C422.297 132.6 424.164 133.933 426.964 134.6C429.764 135.267 433.897 135.6 439.364 135.6C439.897 135.6 440.164 136 440.164 136.8C440.164 137.6 439.897 138 439.364 138C436.164 138 432.364 137.933 427.964 137.8C423.697 137.667 419.164 137.6 414.364 137.6C410.897 137.6 407.564 137.667 404.364 137.8C401.164 137.933 398.431 138 396.164 138ZM519.495 139.2C518.962 139.467 518.429 139.6 517.895 139.6C516.162 139.6 514.495 138.2 512.895 135.4C511.295 132.467 510.495 128.267 510.495 122.8V85C510.495 76.7333 509.295 70.9333 506.895 67.6C504.629 64.2667 501.629 62.6 497.895 62.6C494.562 62.6 491.829 63.4667 489.695 65.2C487.562 66.8 485.962 68.7333 484.895 71C483.962 73.2667 483.295 75.4 482.895 77.4C482.495 79.2667 481.829 81.1333 480.895 83C479.962 84.7333 478.095 85.6 475.295 85.6C473.029 85.6 471.362 85 470.295 83.8C469.229 82.4667 468.695 81.0667 468.695 79.6C468.695 77.0667 469.895 74.6 472.295 72.2C474.829 69.8 477.962 67.6 481.695 65.6C485.562 63.4667 489.562 61.8 493.695 60.6C497.962 59.4 501.762 58.8 505.095 58.8C510.562 58.8 514.695 60.6 517.495 64.2C520.295 67.6667 521.695 72.6 521.695 79V116.4C521.695 121.067 522.295 124.467 523.495 126.6C524.695 128.733 526.629 129.8 529.295 129.8C531.695 129.8 535.029 128.933 539.295 127.2C539.962 126.933 540.429 127.2 540.695 128C540.962 128.667 540.762 129.133 540.095 129.4L519.495 139.2ZM483.495 139.4C478.429 139.4 474.562 138.067 471.895 135.4C469.229 132.6 467.895 129.333 467.895 125.6C467.895 122.933 468.562 120.533 469.895 118.4C471.362 116.133 473.629 114.067 476.695 112.2C479.762 110.333 483.695 108.533 488.495 106.8L512.495 97.8L513.095 100.4L491.895 108.6C489.495 109.533 487.495 110.6 485.895 111.8C484.295 113 483.095 114.333 482.295 115.8C481.629 117.267 481.295 118.867 481.295 120.6C481.295 123.667 482.295 126.333 484.295 128.6C486.295 130.867 489.029 132 492.495 132C493.829 132 495.229 131.8 496.695 131.4C498.162 131 499.962 130.133 502.095 128.8L514.695 121.2L515.095 123.8L500.295 133.4C497.095 135.533 494.162 137.067 491.495 138C488.962 138.933 486.295 139.4 483.495 139.4Z" fill="black"/>
<defs>
<linearGradient id="paint0_linear_5_4" x1="1.82608" y1="0.335122" x2="133.399" y2="101.917" gradientUnits="userSpaceOnUse">
<stop offset="0.0673077" stop-color="#D9C2FF"/>
<stop offset="0.298077" stop-color="#6B3EA0"/>
<stop offset="0.701923" stop-color="#402060"/>
</linearGradient>
</defs>
</svg>
