<svg width="545" height="242" viewBox="0 0 545 242" fill="none" xmlns="http://www.w3.org/2000/svg">
<path d="M0 180.303V54.0175L23.8872 54.1312C23.8247 55.7576 24.1304 58.5069 25.1087 63.0175C28.5326 78.8032 79.1926 154.789 84.5 147.018C89.8074 139.246 91.4755 54.1473 79.8913 54.1479C68.3071 54.1485 105 54.0175 105 54.0175V180.303C105 185.668 100.912 190.018 95.8696 190.018H79.8913C75.4739 190.018 71.7894 186.68 70.9435 182.246C70.8237 181.618 70.7609 180.969 70.7609 180.303C70.7609 180.303 41.087 117.946 27.3913 115.518C13.6957 113.089 34.2391 180.303 34.2391 180.303C34.2391 185.668 30.1514 190.018 25.1087 190.018H9.13043C4.0877 190.018 0 185.668 0 180.303Z" fill="url(#paint0_linear_14_10)"/>
<path d="M165.8 187.4C157.8 187.4 151.067 185.6 145.6 182C140.133 178.267 136 173.467 133.2 167.6C130.533 161.733 129.2 155.533 129.2 149C129.2 140.867 131.067 133.6 134.8 127.2C138.533 120.667 143.6 115.533 150 111.8C156.533 107.933 163.667 106 171.4 106C179 106 184.733 108 188.6 112C192.6 116 194.6 121.6 194.6 128.8C194.6 130.533 194.4 131.867 194 132.8C193.733 133.6 193.133 134 192.2 134H181C181.533 125.867 180.333 119.867 177.4 116C174.467 112 170.267 110 164.8 110C157.733 110 152.2 112.8 148.2 118.4C144.333 124 142.4 131.667 142.4 141.4C142.4 149 143.6 155.733 146 161.6C148.4 167.467 151.933 172.067 156.6 175.4C161.267 178.733 166.933 180.4 173.6 180.4C178.133 180.4 181.867 179.733 184.8 178.4C187.733 177.067 190.667 175.533 193.6 173.8C193.867 173.533 194.2 173.733 194.6 174.4C195.133 174.933 195.267 175.4 195 175.8C190.333 179.933 185.533 182.933 180.6 184.8C175.8 186.533 170.867 187.4 165.8 187.4ZM138.8 134.2L138.6 131.6L184 130.8V134L138.8 134.2ZM255.441 185C255.041 185 254.841 184.6 254.841 183.8C254.841 183 255.041 182.6 255.441 182.6C259.441 182.6 261.641 182.067 262.041 181C262.441 179.933 261.641 177.867 259.641 174.8L226.241 124.4C222.641 119.067 219.107 115.4 215.641 113.4C212.174 111.267 209.241 110.2 206.841 110.2C206.574 110.2 206.441 109.8 206.441 109C206.441 108.2 206.574 107.8 206.841 107.8C208.841 107.8 210.907 107.867 213.041 108C215.174 108.133 217.241 108.2 219.241 108.2C223.641 108.2 227.507 108.133 230.841 108C234.174 107.867 237.174 107.8 239.841 107.8C240.107 107.8 240.241 108.2 240.241 109C240.241 109.8 240.107 110.2 239.841 110.2C236.107 110.2 233.974 110.733 233.441 111.8C232.907 112.867 233.707 114.933 235.841 118L269.241 168.4C272.841 173.867 276.441 177.6 280.041 179.6C283.641 181.6 286.641 182.6 289.041 182.6C289.307 182.6 289.441 183 289.441 183.8C289.441 184.6 289.307 185 289.041 185C287.041 185 284.907 184.933 282.641 184.8C280.374 184.667 278.241 184.6 276.241 184.6C271.707 184.6 267.774 184.667 264.441 184.8C261.241 184.933 258.241 185 255.441 185ZM206.241 185C205.974 185 205.841 184.6 205.841 183.8C205.841 183 205.974 182.6 206.241 182.6C209.574 182.6 213.241 181.4 217.241 179C221.374 176.467 225.241 172.733 228.841 167.8L244.841 145.6L247.241 147.6L232.441 169C230.441 171.933 229.174 174.467 228.641 176.6C228.107 178.6 228.641 180.133 230.241 181.2C231.974 182.133 235.174 182.6 239.841 182.6C240.241 182.6 240.441 183 240.441 183.8C240.441 184.6 240.241 185 239.841 185C236.774 185 233.774 184.933 230.841 184.8C228.041 184.667 224.374 184.6 219.841 184.6C216.907 184.6 214.507 184.667 212.641 184.8C210.907 184.933 208.774 185 206.241 185ZM247.841 146.4L245.841 144.4L259.841 123.8C263.041 119 264.374 115.533 263.841 113.4C263.307 111.267 259.507 110.2 252.441 110.2C252.174 110.2 252.041 109.8 252.041 109C252.041 108.2 252.174 107.8 252.441 107.8C255.641 107.8 258.641 107.867 261.441 108C264.374 108.133 268.107 108.2 272.641 108.2C275.574 108.2 277.907 108.133 279.641 108C281.507 107.867 283.707 107.8 286.241 107.8C286.507 107.8 286.641 108.2 286.641 109C286.641 109.8 286.507 110.2 286.241 110.2C282.907 110.2 279.241 111.4 275.241 113.8C271.374 116.067 267.507 119.8 263.641 125L247.841 146.4ZM327.931 186.6C321.398 186.6 316.198 184.533 312.331 180.4C308.598 176.133 306.731 170 306.731 162V131.4C306.731 126.2 306.265 122.467 305.331 120.2C304.531 117.8 302.998 116.6 300.731 116.6C298.865 116.6 296.598 117.267 293.931 118.6C293.398 118.733 292.931 118.4 292.531 117.6C292.265 116.8 292.398 116.333 292.931 116.2L315.131 106.2C315.398 106.067 315.665 106 315.931 106C316.331 106 316.731 106.2 317.131 106.6C317.665 106.867 317.931 107.2 317.931 107.6V155.4C317.931 163.267 319.331 169.133 322.131 173C324.931 176.733 329.131 178.6 334.731 178.6C339.798 178.6 344.865 177.067 349.931 174C355.131 170.933 359.665 166.8 363.531 161.6L364.531 163.8C358.398 171.667 352.331 177.467 346.331 181.2C340.465 184.8 334.331 186.6 327.931 186.6ZM370.931 107.6V163.6C370.931 168.133 371.465 171.4 372.531 173.4C373.598 175.4 375.398 176.4 377.931 176.4C379.265 176.4 380.731 176.2 382.331 175.8C384.065 175.267 386.131 174.533 388.531 173.6C389.198 173.333 389.665 173.6 389.931 174.4C390.198 175.067 390.065 175.533 389.531 175.8L366.131 186.8C365.865 186.933 365.598 187 365.331 187C364.265 187 363.065 185.6 361.731 182.8C360.398 179.867 359.731 175.733 359.731 170.4V131.4C359.731 126.2 359.265 122.467 358.331 120.2C357.531 117.8 355.998 116.6 353.731 116.6C351.865 116.6 349.598 117.267 346.931 118.6C346.398 118.733 345.998 118.4 345.731 117.6C345.465 116.8 345.598 116.333 346.131 116.2L368.331 106.2C368.598 106.067 368.798 106 368.931 106C369.331 106 369.731 106.2 370.131 106.6C370.665 106.867 370.931 107.2 370.931 107.6ZM418.764 130.8L417.964 128.6C422.897 122.6 426.964 118 430.164 114.8C433.364 111.467 436.097 109.2 438.364 108C440.764 106.667 443.031 106 445.164 106C447.964 106 450.697 106.8 453.364 108.4C456.164 110 457.564 111.933 457.564 114.2C457.564 115.933 456.964 117.4 455.764 118.6C454.697 119.8 453.097 120.4 450.964 120.4C449.231 120.4 447.764 119.867 446.564 118.8C445.364 117.733 444.097 116.733 442.764 115.8C441.431 114.867 439.697 114.4 437.564 114.4C436.364 114.4 435.097 114.733 433.764 115.4C432.431 116.067 430.631 117.6 428.364 120C426.097 122.267 422.897 125.867 418.764 130.8ZM399.164 185C398.764 185 398.564 184.6 398.564 183.8C398.564 183 398.764 182.6 399.164 182.6C404.364 182.6 407.697 181.733 409.164 180C410.764 178.133 411.564 174.4 411.564 168.8V129.2C411.564 124.8 411.031 121.6 409.964 119.6C409.031 117.467 407.231 116.4 404.564 116.4C403.231 116.4 401.631 116.667 399.764 117.2C398.031 117.733 396.031 118.467 393.764 119.4C393.231 119.533 392.764 119.267 392.364 118.6C392.097 117.933 392.231 117.467 392.764 117.2L415.964 106.2C416.364 106.067 416.764 106 417.164 106C418.097 106 419.297 107.4 420.764 110.2C422.231 113 422.964 117.067 422.964 122.4V168.8C422.964 172.533 423.431 175.467 424.364 177.6C425.297 179.6 427.164 180.933 429.964 181.6C432.764 182.267 436.897 182.6 442.364 182.6C442.897 182.6 443.164 183 443.164 183.8C443.164 184.6 442.897 185 442.364 185C439.164 185 435.364 184.933 430.964 184.8C426.697 184.667 422.164 184.6 417.364 184.6C413.897 184.6 410.564 184.667 407.364 184.8C404.164 184.933 401.431 185 399.164 185ZM522.495 186.2C521.962 186.467 521.429 186.6 520.895 186.6C519.162 186.6 517.495 185.2 515.895 182.4C514.295 179.467 513.495 175.267 513.495 169.8V132C513.495 123.733 512.295 117.933 509.895 114.6C507.629 111.267 504.629 109.6 500.895 109.6C497.562 109.6 494.829 110.467 492.695 112.2C490.562 113.8 488.962 115.733 487.895 118C486.962 120.267 486.295 122.4 485.895 124.4C485.495 126.267 484.829 128.133 483.895 130C482.962 131.733 481.095 132.6 478.295 132.6C476.029 132.6 474.362 132 473.295 130.8C472.229 129.467 471.695 128.067 471.695 126.6C471.695 124.067 472.895 121.6 475.295 119.2C477.829 116.8 480.962 114.6 484.695 112.6C488.562 110.467 492.562 108.8 496.695 107.6C500.962 106.4 504.762 105.8 508.095 105.8C513.562 105.8 517.695 107.6 520.495 111.2C523.295 114.667 524.695 119.6 524.695 126V163.4C524.695 168.067 525.295 171.467 526.495 173.6C527.695 175.733 529.629 176.8 532.295 176.8C534.695 176.8 538.029 175.933 542.295 174.2C542.962 173.933 543.429 174.2 543.695 175C543.962 175.667 543.762 176.133 543.095 176.4L522.495 186.2ZM486.495 186.4C481.429 186.4 477.562 185.067 474.895 182.4C472.229 179.6 470.895 176.333 470.895 172.6C470.895 169.933 471.562 167.533 472.895 165.4C474.362 163.133 476.629 161.067 479.695 159.2C482.762 157.333 486.695 155.533 491.495 153.8L515.495 144.8L516.095 147.4L494.895 155.6C492.495 156.533 490.495 157.6 488.895 158.8C487.295 160 486.095 161.333 485.295 162.8C484.629 164.267 484.295 165.867 484.295 167.6C484.295 170.667 485.295 173.333 487.295 175.6C489.295 177.867 492.029 179 495.495 179C496.829 179 498.229 178.8 499.695 178.4C501.162 178 502.962 177.133 505.095 175.8L517.695 168.2L518.095 170.8L503.295 180.4C500.095 182.533 497.162 184.067 494.495 185C491.962 185.933 489.295 186.4 486.495 186.4Z" fill="#F4EEFF"/>
<defs>
<linearGradient id="paint0_linear_14_10" x1="1.82608" y1="52.3175" x2="133.399" y2="153.899" gradientUnits="userSpaceOnUse">
<stop offset="0.0484328" stop-color="#402060"/>
<stop offset="0.253237" stop-color="#6B3EA0"/>
<stop offset="0.7" stop-color="#D9C2FF"/>
</linearGradient>
</defs>
</svg>
